<?xml version="1.0" encoding="utf-8"?>
<!-- Generator: Adobe Illustrator 22.0.1, SVG Export Plug-In . SVG Version: 6.00 Build 0)  -->
<svg version="1.1" id="Capa_1" xmlns="http://www.w3.org/2000/svg" xmlns:xlink="http://www.w3.org/1999/xlink" x="0px" y="0px"
	 viewBox="-49 141 512 512" style="enable-background:new -49 141 512 512;" xml:space="preserve">
<style type="text/css">
	.st0{clip-path:url(#SVGID_2_);fill:#F18A00;}
</style>
<g>
	<defs>
		<path id="SVGID_1_" d="M207,141c141.2,0,256,114.8,256,256v240c0,8.8-7.2,16-16,16H207C65.8,653-49,538.2-49,397S65.8,141,207,141
			z"/>
	</defs>
	<use xlink:href="#SVGID_1_"  style="overflow:visible;fill:#004C94;"/>
	<clipPath id="SVGID_2_">
		<use xlink:href="#SVGID_1_"  style="overflow:visible;"/>
	</clipPath>
	<path class="st0" d="M421,571.6c-72,53-152,85.1-231.1,97c73.3,16.6,153.9,17.1,235.2-1.9c40.1-9.4,77.9-23,112.9-40
		c13.6-28.4,23.6-57.9,29.7-88.2c-21.2-14-43.9-26.7-67.8-37.8C476.5,526.2,450.2,550,421,571.6"/>
</g>
</svg>
