<?xml version="1.0" encoding="utf-8"?>
<!-- Generator: Adobe Illustrator 22.0.1, SVG Export Plug-In . SVG Version: 6.00 Build 0)  -->
<svg version="1.1" id="Isolation_Mode" xmlns="http://www.w3.org/2000/svg" xmlns:xlink="http://www.w3.org/1999/xlink" x="0px"
	 y="0px" viewBox="-49 141 512 512" style="enable-background:new -49 141 512 512;" xml:space="preserve">
<style type="text/css">
	.st0{fill:#F7941D;}
</style>
<g id="Layer_1">
</g>
<g>
	<path class="st0" d="M129.6,390.2L-20.2,155H92.1c7.3,0,12.7,0.9,16.1,2.8c3.4,1.9,6.5,5,9.1,9.5l96.3,163.1
		c1.1-2.9,2.4-5.6,3.8-8.3c1.4-2.7,3-5.4,4.8-8.3l84.4-144.8c5.5-9.3,13.1-13.9,22.6-13.9h107.6L285.1,385.2L440.2,639H327.9
		c-7.3,0-13.2-1.8-17.8-5.3c-4.5-3.5-8.1-7.7-10.8-12.6l-97-169.4c-1.8,4.9-3.8,9.1-6,12.6L106,621.1c-2.7,4.6-6.2,8.8-10.6,12.5
		c-4.4,3.7-10,5.5-16.6,5.5h-105L129.6,390.2z"/>
</g>
</svg>
