<?xml version="1.0" encoding="utf-8"?>
<!-- Generator: Adobe Illustrator 22.0.1, SVG Export Plug-In . SVG Version: 6.00 Build 0)  -->
<svg version="1.1" id="Isolation_Mode" xmlns="http://www.w3.org/2000/svg" xmlns:xlink="http://www.w3.org/1999/xlink" x="0px"
	 y="0px" viewBox="-49 141 512 512" style="enable-background:new -49 141 512 512;" xml:space="preserve">
<style type="text/css">
	.st0{fill:#FFB344;}
	.st1{fill:#FFCF35;}
	.st2{fill:#FBC483;}
	.st3{fill:#FFFFFF;}
	.st4{fill:#E0E0E0;}
	.st5{fill:#F7941D;}
	.st6{fill:#C16F16;}
	.st7{fill:#FF9451;}
	.st8{fill:#F7674F;}
</style>
<g id="Layer_1">
	<g>
		<path class="st0" d="M270.4,631.2H207v-25.1h63.4c53.8,0,97.6-43.8,97.6-97.6V387.2h25.1v121.2
			C393.1,576.1,338.1,631.2,270.4,631.2z"/>
		<path class="st1" d="M390,408.3h-18.8v-101c0-78.3-73.6-142.1-164.1-142.1S42.9,229,42.9,307.3v101H24v-101
			c0-88.7,82.1-160.9,183-160.9s183,72.2,183,160.9V408.3z"/>
		<path class="st0" d="M207,146.4c-0.4,0-0.8,0-1.2,0v18.8c0.4,0,0.8,0,1.2,0c90.5,0,164.1,63.7,164.1,142.1v101H390v-101
			C390,218.6,307.9,146.4,207,146.4z"/>
		<path class="st2" d="M361.3,318.9h12.2c33.9,0,61.4,27.5,61.4,61.4v13.8c0,33.9-27.5,61.4-61.4,61.4h-12.2V318.9z"/>
		<path class="st2" d="M52.7,318.9H40.6c-33.9,0-61.4,27.5-61.4,61.4v13.8c0,33.9,27.5,61.4,61.4,61.4h12.2V318.9z"/>
		<path class="st3" d="M384.1,364.7c0,97.8-78.5,236.1-175.3,236.1S33.5,462.5,33.5,364.7s78.5-177.1,175.3-177.1
			S384.1,266.9,384.1,364.7z"/>
		<path class="st4" d="M208.8,187.6c-1,0-2,0.1-3,0.1v413.1c1,0,2,0.1,3,0.1c96.8,0,175.3-138.3,175.3-236.1
			S305.6,187.6,208.8,187.6z"/>
		<path class="st5" d="M208.8,187.6c-96.8,0-175.3,79.3-175.3,177.1c0,30.2,7.5,64.3,20.7,97l1.2,1.9
			c173-47.8,211.8-157.9,211.8-157.9s30.1,54.1,110,113c4.5-18.6,6.9-36.9,6.9-54C384.1,266.9,305.6,187.6,208.8,187.6z"/>
		<path class="st6" d="M208.8,187.6c-1,0-2,0.1-3,0.1v198.7c47.6-41.7,61.4-80.7,61.4-80.7s30.1,54.1,110,113
			c4.5-18.6,6.9-36.9,6.9-54C384.1,266.9,305.6,187.6,208.8,187.6z"/>
		<path class="st7" d="M248.9,647.6h-52.3c-8.8,0-15.9-7.1-15.9-15.9v-26c0-8.8,7.1-15.9,15.9-15.9h52.3c8.8,0,15.9,7.1,15.9,15.9
			v26C264.8,640.4,257.7,647.6,248.9,647.6z"/>
		<path class="st8" d="M248.9,589.7h-43.1v57.8h43.1c8.8,0,15.9-7.1,15.9-15.9v-26C264.8,596.8,257.7,589.7,248.9,589.7z"/>
	</g>
</g>
</svg>
